<?xml version="1.0" encoding="UTF-8" standalone="no"?>
<!DOCTYPE svg PUBLIC "-//W3C//DTD SVG 1.1//EN"
 "http://www.w3.org/Graphics/SVG/1.1/DTD/svg11.dtd">
<!-- Generated by graphviz version 2.38.0 (20140413.2041)
 -->
<!-- Title: tasks Pages: 1 -->
<svg width="1111pt" height="314pt"
 viewBox="0.00 0.00 1111.00 314.00" xmlns="http://www.w3.org/2000/svg" xmlns:xlink="http://www.w3.org/1999/xlink">
<g id="graph0" class="graph" transform="scale(1 1) rotate(0) translate(4 310)">
<title>tasks</title>
<polygon fill="white" stroke="none" points="-4,4 -4,-310 1107,-310 1107,4 -4,4"/>
<!-- build -->
<g id="node1" class="node"><title>build</title>
<polygon fill="lightgreen" stroke="black" points="104,-171 50,-171 50,-135 104,-135 104,-171"/>
<text text-anchor="middle" x="77" y="-149.3" font-family="Helvetica,sans-Serif" font-size="14.00">build</text>
</g>
<!-- check -->
<g id="node2" class="node"><title>check</title>
<polygon fill="lightgreen" stroke="black" points="326,-198 272,-198 272,-162 326,-162 326,-198"/>
<text text-anchor="middle" x="299" y="-176.3" font-family="Helvetica,sans-Serif" font-size="14.00">check</text>
</g>
<!-- build&#45;&gt;check -->
<g id="edge1" class="edge"><title>build&#45;&gt;check</title>
<path fill="none" stroke="black" d="M104.101,-156.203C143.299,-161.014 217.493,-170.12 261.869,-175.566"/>
<polygon fill="black" stroke="black" points="261.581,-179.057 271.933,-176.801 262.434,-172.109 261.581,-179.057"/>
</g>
<!-- assemble -->
<g id="node3" class="node"><title>assemble</title>
<polygon fill="lightgreen" stroke="black" points="336.5,-144 261.5,-144 261.5,-108 336.5,-108 336.5,-144"/>
<text text-anchor="middle" x="299" y="-122.3" font-family="Helvetica,sans-Serif" font-size="14.00">assemble</text>
</g>
<!-- build&#45;&gt;assemble -->
<g id="edge2" class="edge"><title>build&#45;&gt;assemble</title>
<path fill="none" stroke="black" d="M104.101,-149.797C140.32,-145.352 206.416,-137.24 251.261,-131.736"/>
<polygon fill="black" stroke="black" points="251.831,-135.193 261.33,-130.5 250.978,-128.245 251.831,-135.193"/>
</g>
<!-- test -->
<g id="node9" class="node"><title>test</title>
<polygon fill="lightgreen" stroke="black" points="513,-198 459,-198 459,-162 513,-162 513,-198"/>
<text text-anchor="middle" x="486" y="-176.3" font-family="Helvetica,sans-Serif" font-size="14.00">test</text>
</g>
<!-- check&#45;&gt;test -->
<g id="edge8" class="edge"><title>check&#45;&gt;test</title>
<path fill="none" stroke="black" d="M326.114,-180C358.114,-180 412.518,-180 448.607,-180"/>
<polygon fill="black" stroke="black" points="448.72,-183.5 458.72,-180 448.72,-176.5 448.72,-183.5"/>
</g>
<!-- jar -->
<g id="node4" class="node"><title>jar</title>
<polygon fill="lightgreen" stroke="black" points="513,-90 459,-90 459,-54 513,-54 513,-90"/>
<text text-anchor="middle" x="486" y="-68.3" font-family="Helvetica,sans-Serif" font-size="14.00">jar</text>
</g>
<!-- assemble&#45;&gt;jar -->
<g id="edge3" class="edge"><title>assemble&#45;&gt;jar</title>
<path fill="none" stroke="black" d="M336.722,-117.708C357.724,-112.745 384.487,-106.045 408,-99 421.625,-94.9175 436.407,-89.884 449.343,-85.2735"/>
<polygon fill="black" stroke="black" points="450.606,-88.5387 458.825,-81.853 448.231,-81.954 450.606,-88.5387"/>
</g>
<!-- classes -->
<g id="node8" class="node"><title>classes</title>
<polygon fill="lightgreen" stroke="black" points="939,-190 877,-190 877,-154 939,-154 939,-190"/>
<text text-anchor="middle" x="908" y="-168.3" font-family="Helvetica,sans-Serif" font-size="14.00">classes</text>
</g>
<!-- jar&#45;&gt;classes -->
<g id="edge7" class="edge"><title>jar&#45;&gt;classes</title>
<path fill="none" stroke="black" d="M513.27,-66.5747C574.613,-55.2978 730.45,-34.7954 841,-91 863.928,-102.657 881.706,-126.251 893.004,-144.982"/>
<polygon fill="black" stroke="black" points="890.005,-146.789 898.024,-153.713 896.074,-143.3 890.005,-146.789"/>
</g>
<!-- installDist -->
<g id="node5" class="node"><title>installDist</title>
<polygon fill="lightgreen" stroke="black" points="336,-36 262,-36 262,-0 336,-0 336,-36"/>
<text text-anchor="middle" x="299" y="-14.3" font-family="Helvetica,sans-Serif" font-size="14.00">installDist</text>
</g>
<!-- installDist&#45;&gt;jar -->
<g id="edge5" class="edge"><title>installDist&#45;&gt;jar</title>
<path fill="none" stroke="black" d="M336.227,-26.1746C357.302,-31.1495 384.302,-37.8995 408,-45 421.625,-49.0825 436.407,-54.116 449.343,-58.7265"/>
<polygon fill="black" stroke="black" points="448.231,-62.046 458.825,-62.147 450.606,-55.4613 448.231,-62.046"/>
</g>
<!-- startScripts -->
<g id="node6" class="node"><title>startScripts</title>
<polygon fill="lightgreen" stroke="black" points="528,-36 444,-36 444,-0 528,-0 528,-36"/>
<text text-anchor="middle" x="486" y="-14.3" font-family="Helvetica,sans-Serif" font-size="14.00">startScripts</text>
</g>
<!-- installDist&#45;&gt;startScripts -->
<g id="edge4" class="edge"><title>installDist&#45;&gt;startScripts</title>
<path fill="none" stroke="black" d="M336.109,-18C363.884,-18 402.629,-18 433.632,-18"/>
<polygon fill="black" stroke="black" points="433.822,-21.5001 443.822,-18 433.822,-14.5001 433.822,-21.5001"/>
</g>
<!-- uploadArchives -->
<g id="node7" class="node"><title>uploadArchives</title>
<polygon fill="lightgreen" stroke="black" points="353.5,-90 244.5,-90 244.5,-54 353.5,-54 353.5,-90"/>
<text text-anchor="middle" x="299" y="-68.3" font-family="Helvetica,sans-Serif" font-size="14.00">uploadArchives</text>
</g>
<!-- uploadArchives&#45;&gt;jar -->
<g id="edge6" class="edge"><title>uploadArchives&#45;&gt;jar</title>
<path fill="none" stroke="black" d="M353.51,-72C384.033,-72 421.49,-72 448.607,-72"/>
<polygon fill="black" stroke="black" points="448.819,-75.5001 458.819,-72 448.819,-68.5001 448.819,-75.5001"/>
</g>
<!-- compileJava -->
<g id="node13" class="node"><title>compileJava</title>
<polygon fill="lightgreen" stroke="black" points="1085,-217 993,-217 993,-181 1085,-181 1085,-217"/>
<text text-anchor="middle" x="1039" y="-195.3" font-family="Helvetica,sans-Serif" font-size="14.00">compileJava</text>
</g>
<!-- classes&#45;&gt;compileJava -->
<g id="edge14" class="edge"><title>classes&#45;&gt;compileJava</title>
<path fill="none" stroke="black" d="M939.245,-178.33C952.193,-181.04 967.736,-184.294 982.618,-187.409"/>
<polygon fill="black" stroke="black" points="982.271,-190.912 992.776,-189.534 983.705,-184.06 982.271,-190.912"/>
</g>
<!-- processResources -->
<g id="node14" class="node"><title>processResources</title>
<polygon fill="lightgreen" stroke="black" points="1103,-163 975,-163 975,-127 1103,-127 1103,-163"/>
<text text-anchor="middle" x="1039" y="-141.3" font-family="Helvetica,sans-Serif" font-size="14.00">processResources</text>
</g>
<!-- classes&#45;&gt;processResources -->
<g id="edge15" class="edge"><title>classes&#45;&gt;processResources</title>
<path fill="none" stroke="black" d="M939.245,-165.67C947.12,-164.021 955.955,-162.172 965.017,-160.275"/>
<polygon fill="black" stroke="black" points="965.834,-163.68 974.905,-158.206 964.4,-156.829 965.834,-163.68"/>
</g>
<!-- test&#45;&gt;classes -->
<g id="edge9" class="edge"><title>test&#45;&gt;classes</title>
<path fill="none" stroke="black" d="M513.079,-188.103C527.856,-192.271 546.778,-196.907 564,-199 686.212,-213.855 720.202,-222.753 841,-199 849.826,-197.265 858.958,-194.339 867.512,-191.039"/>
<polygon fill="black" stroke="black" points="868.953,-194.231 876.877,-187.198 866.297,-187.755 868.953,-194.231"/>
</g>
<!-- testClasses -->
<g id="node10" class="node"><title>testClasses</title>
<polygon fill="lightgreen" stroke="black" points="650,-190 564,-190 564,-154 650,-154 650,-190"/>
<text text-anchor="middle" x="607" y="-168.3" font-family="Helvetica,sans-Serif" font-size="14.00">testClasses</text>
</g>
<!-- test&#45;&gt;testClasses -->
<g id="edge10" class="edge"><title>test&#45;&gt;testClasses</title>
<path fill="none" stroke="black" d="M513.115,-178.244C525.007,-177.445 539.529,-176.469 553.526,-175.528"/>
<polygon fill="black" stroke="black" points="553.836,-179.015 563.579,-174.852 553.367,-172.031 553.836,-179.015"/>
</g>
<!-- compileTestJava -->
<g id="node11" class="node"><title>compileTestJava</title>
<polygon fill="lightgreen" stroke="black" points="823,-190 704,-190 704,-154 823,-154 823,-190"/>
<text text-anchor="middle" x="763.5" y="-168.3" font-family="Helvetica,sans-Serif" font-size="14.00">compileTestJava</text>
</g>
<!-- testClasses&#45;&gt;compileTestJava -->
<g id="edge11" class="edge"><title>testClasses&#45;&gt;compileTestJava</title>
<path fill="none" stroke="black" d="M650.218,-172C663.647,-172 678.869,-172 693.673,-172"/>
<polygon fill="black" stroke="black" points="693.829,-175.5 703.829,-172 693.829,-168.5 693.829,-175.5"/>
</g>
<!-- processTestResources -->
<g id="node12" class="node"><title>processTestResources</title>
<polygon fill="lightgreen" stroke="black" points="841,-136 686,-136 686,-100 841,-100 841,-136"/>
<text text-anchor="middle" x="763.5" y="-114.3" font-family="Helvetica,sans-Serif" font-size="14.00">processTestResources</text>
</g>
<!-- testClasses&#45;&gt;processTestResources -->
<g id="edge12" class="edge"><title>testClasses&#45;&gt;processTestResources</title>
<path fill="none" stroke="black" d="M650.218,-157.244C665.902,-151.762 684.031,-145.426 701.084,-139.466"/>
<polygon fill="black" stroke="black" points="702.688,-142.613 710.973,-136.009 700.378,-136.005 702.688,-142.613"/>
</g>
<!-- compileTestJava&#45;&gt;classes -->
<g id="edge13" class="edge"><title>compileTestJava&#45;&gt;classes</title>
<path fill="none" stroke="black" d="M823.283,-172C837.802,-172 853.033,-172 866.464,-172"/>
<polygon fill="black" stroke="black" points="866.801,-175.5 876.801,-172 866.801,-168.5 866.801,-175.5"/>
</g>
<!-- integrationTestClasses -->
<g id="node15" class="node"><title>integrationTestClasses</title>
<polygon fill="orange" stroke="black" points="154,-279 0,-279 0,-243 154,-243 154,-279"/>
<text text-anchor="middle" x="77" y="-257.3" font-family="Helvetica,sans-Serif" font-size="14.00">integrationTestClasses</text>
</g>
<!-- compileIntegrationTestJava -->
<g id="node16" class="node"><title>compileIntegrationTestJava</title>
<polygon fill="orange" stroke="black" points="390,-306 208,-306 208,-270 390,-270 390,-306"/>
<text text-anchor="middle" x="299" y="-284.3" font-family="Helvetica,sans-Serif" font-size="14.00">compileIntegrationTestJava</text>
</g>
<!-- integrationTestClasses&#45;&gt;compileIntegrationTestJava -->
<g id="edge16" class="edge"><title>integrationTestClasses&#45;&gt;compileIntegrationTestJava</title>
<path fill="none" stroke="black" d="M154.02,-270.33C168.147,-272.064 183.104,-273.899 197.825,-275.706"/>
<polygon fill="black" stroke="black" points="197.613,-279.206 207.965,-276.95 198.466,-272.258 197.613,-279.206"/>
</g>
<!-- processIntegrationTestResources -->
<g id="node17" class="node"><title>processIntegrationTestResources</title>
<polygon fill="orange" stroke="black" points="408,-252 190,-252 190,-216 408,-216 408,-252"/>
<text text-anchor="middle" x="299" y="-230.3" font-family="Helvetica,sans-Serif" font-size="14.00">processIntegrationTestResources</text>
</g>
<!-- integrationTestClasses&#45;&gt;processIntegrationTestResources -->
<g id="edge17" class="edge"><title>integrationTestClasses&#45;&gt;processIntegrationTestResources</title>
<path fill="none" stroke="black" d="M154.02,-251.67C162.322,-250.651 170.91,-249.597 179.568,-248.535"/>
<polygon fill="black" stroke="black" points="180.252,-251.977 189.752,-247.285 179.4,-245.029 180.252,-251.977"/>
</g>
</g>
</svg>
