<?xml version="1.0" encoding="UTF-8" standalone="no"?>
<!DOCTYPE svg PUBLIC "-//W3C//DTD SVG 1.1//EN"
 "http://www.w3.org/Graphics/SVG/1.1/DTD/svg11.dtd">
<!-- Generated by graphviz version 2.38.0 (20140413.2041)
 -->
<!-- Title: tasks Pages: 1 -->
<svg width="1021pt" height="393pt"
 viewBox="0.00 0.00 1021.00 393.29" xmlns="http://www.w3.org/2000/svg" xmlns:xlink="http://www.w3.org/1999/xlink">
<g id="graph0" class="graph" transform="scale(1 1) rotate(0) translate(4 389.295)">
<title>tasks</title>
<polygon fill="white" stroke="none" points="-4,4 -4,-389.295 1017,-389.295 1017,4 -4,4"/>
<!-- build -->
<g id="node1" class="node"><title>build</title>
<polygon fill="lightgreen" stroke="black" points="54,-137 0,-137 0,-101 54,-101 54,-137"/>
<text text-anchor="middle" x="27" y="-115.3" font-family="Helvetica,sans-Serif" font-size="14.00">build</text>
</g>
<!-- check -->
<g id="node2" class="node"><title>check</title>
<polygon fill="lightgreen" stroke="black" points="154.5,-170 100.5,-170 100.5,-134 154.5,-134 154.5,-170"/>
<text text-anchor="middle" x="127.5" y="-148.3" font-family="Helvetica,sans-Serif" font-size="14.00">check</text>
</g>
<!-- build&#45;&gt;check -->
<g id="edge1" class="edge"><title>build&#45;&gt;check</title>
<path fill="none" stroke="black" d="M54.1376,-127.757C65.2693,-131.486 78.4383,-135.898 90.4704,-139.929"/>
<polygon fill="black" stroke="black" points="89.6464,-143.344 100.24,-143.202 91.8701,-136.707 89.6464,-143.344"/>
</g>
<!-- assemble -->
<g id="node3" class="node"><title>assemble</title>
<polygon fill="lightgreen" stroke="black" points="165,-105 90,-105 90,-69 165,-69 165,-105"/>
<text text-anchor="middle" x="127.5" y="-83.3" font-family="Helvetica,sans-Serif" font-size="14.00">assemble</text>
</g>
<!-- build&#45;&gt;assemble -->
<g id="edge2" class="edge"><title>build&#45;&gt;assemble</title>
<path fill="none" stroke="black" d="M54.1376,-110.509C62.1738,-107.898 71.2718,-104.942 80.2373,-102.03"/>
<polygon fill="black" stroke="black" points="81.428,-105.323 89.8572,-98.9042 79.2651,-98.6653 81.428,-105.323"/>
</g>
<!-- test -->
<g id="node4" class="node"><title>test</title>
<polygon fill="lightgreen" stroke="black" points="281,-317 227,-317 227,-281 281,-281 281,-317"/>
<text text-anchor="middle" x="254" y="-295.3" font-family="Helvetica,sans-Serif" font-size="14.00">test</text>
</g>
<!-- check&#45;&gt;test -->
<g id="edge3" class="edge"><title>check&#45;&gt;test</title>
<path fill="none" stroke="black" d="M143.766,-170.025C165.608,-195.814 205.898,-243.386 230.969,-272.988"/>
<polygon fill="black" stroke="black" points="228.475,-275.459 237.609,-280.827 233.817,-270.935 228.475,-275.459"/>
</g>
<!-- integrationTest -->
<g id="node18" class="node"><title>integrationTest</title>
<polygon fill="lightblue" stroke="black" points="307,-170 201,-170 201,-134 307,-134 307,-170"/>
<text text-anchor="middle" x="254" y="-148.3" font-family="Helvetica,sans-Serif" font-size="14.00">integrationTest</text>
</g>
<!-- check&#45;&gt;integrationTest -->
<g id="edge20" class="edge"><title>check&#45;&gt;integrationTest</title>
<path fill="none" stroke="black" d="M154.599,-152C165.177,-152 177.885,-152 190.602,-152"/>
<polygon fill="black" stroke="black" points="190.762,-155.5 200.762,-152 190.762,-148.5 190.762,-155.5"/>
</g>
<!-- jar -->
<g id="node9" class="node"><title>jar</title>
<polygon fill="lightgreen" stroke="black" points="669,-74 615,-74 615,-38 669,-38 669,-74"/>
<text text-anchor="middle" x="642" y="-52.3" font-family="Helvetica,sans-Serif" font-size="14.00">jar</text>
</g>
<!-- assemble&#45;&gt;jar -->
<g id="edge9" class="edge"><title>assemble&#45;&gt;jar</title>
<path fill="none" stroke="black" d="M165.358,-84.7706C259.945,-79.0492 510.427,-63.8981 604.557,-58.2044"/>
<polygon fill="black" stroke="black" points="604.955,-61.6868 614.725,-57.5893 604.532,-54.6996 604.955,-61.6868"/>
</g>
<!-- classes -->
<g id="node5" class="node"><title>classes</title>
<polygon fill="lightgreen" stroke="black" points="849,-290 787,-290 787,-254 849,-254 849,-290"/>
<text text-anchor="middle" x="818" y="-268.3" font-family="Helvetica,sans-Serif" font-size="14.00">classes</text>
</g>
<!-- test&#45;&gt;classes -->
<g id="edge4" class="edge"><title>test&#45;&gt;classes</title>
<path fill="none" stroke="black" d="M281.1,-311.046C357.646,-344.51 586.504,-431.155 751,-353 774.373,-341.895 792.192,-318.014 803.388,-299.044"/>
<polygon fill="black" stroke="black" points="806.508,-300.637 808.348,-290.203 800.403,-297.212 806.508,-300.637"/>
</g>
<!-- testClasses -->
<g id="node6" class="node"><title>testClasses</title>
<polygon fill="lightgreen" stroke="black" points="463,-317 377,-317 377,-281 463,-281 463,-317"/>
<text text-anchor="middle" x="420" y="-295.3" font-family="Helvetica,sans-Serif" font-size="14.00">testClasses</text>
</g>
<!-- test&#45;&gt;testClasses -->
<g id="edge5" class="edge"><title>test&#45;&gt;testClasses</title>
<path fill="none" stroke="black" d="M281.349,-299C304.252,-299 338.12,-299 366.53,-299"/>
<polygon fill="black" stroke="black" points="366.719,-302.5 376.719,-299 366.719,-295.5 366.719,-302.5"/>
</g>
<!-- compileJava -->
<g id="node11" class="node"><title>compileJava</title>
<polygon fill="lightgreen" stroke="black" points="995,-317 903,-317 903,-281 995,-281 995,-317"/>
<text text-anchor="middle" x="949" y="-295.3" font-family="Helvetica,sans-Serif" font-size="14.00">compileJava</text>
</g>
<!-- classes&#45;&gt;compileJava -->
<g id="edge12" class="edge"><title>classes&#45;&gt;compileJava</title>
<path fill="none" stroke="black" d="M849.245,-278.33C862.193,-281.04 877.736,-284.294 892.618,-287.409"/>
<polygon fill="black" stroke="black" points="892.271,-290.912 902.776,-289.534 893.705,-284.06 892.271,-290.912"/>
</g>
<!-- processResources -->
<g id="node12" class="node"><title>processResources</title>
<polygon fill="lightgreen" stroke="black" points="1013,-263 885,-263 885,-227 1013,-227 1013,-263"/>
<text text-anchor="middle" x="949" y="-241.3" font-family="Helvetica,sans-Serif" font-size="14.00">processResources</text>
</g>
<!-- classes&#45;&gt;processResources -->
<g id="edge13" class="edge"><title>classes&#45;&gt;processResources</title>
<path fill="none" stroke="black" d="M849.245,-265.67C857.12,-264.021 865.955,-262.172 875.017,-260.275"/>
<polygon fill="black" stroke="black" points="875.834,-263.68 884.905,-258.206 874.4,-256.829 875.834,-263.68"/>
</g>
<!-- compileTestJava -->
<g id="node7" class="node"><title>compileTestJava</title>
<polygon fill="lightgreen" stroke="black" points="701.5,-290 582.5,-290 582.5,-254 701.5,-254 701.5,-290"/>
<text text-anchor="middle" x="642" y="-268.3" font-family="Helvetica,sans-Serif" font-size="14.00">compileTestJava</text>
</g>
<!-- testClasses&#45;&gt;compileTestJava -->
<g id="edge6" class="edge"><title>testClasses&#45;&gt;compileTestJava</title>
<path fill="none" stroke="black" d="M463.158,-293.826C493.932,-290.049 536.329,-284.846 572.008,-280.467"/>
<polygon fill="black" stroke="black" points="572.86,-283.889 582.36,-279.197 572.008,-276.941 572.86,-283.889"/>
</g>
<!-- processTestResources -->
<g id="node8" class="node"><title>processTestResources</title>
<polygon fill="lightgreen" stroke="black" points="719.5,-344 564.5,-344 564.5,-308 719.5,-308 719.5,-344"/>
<text text-anchor="middle" x="642" y="-322.3" font-family="Helvetica,sans-Serif" font-size="14.00">processTestResources</text>
</g>
<!-- testClasses&#45;&gt;processTestResources -->
<g id="edge7" class="edge"><title>testClasses&#45;&gt;processTestResources</title>
<path fill="none" stroke="black" d="M463.158,-304.174C488.939,-307.338 522.878,-311.503 554.19,-315.346"/>
<polygon fill="black" stroke="black" points="553.899,-318.836 564.251,-316.581 554.752,-311.889 553.899,-318.836"/>
</g>
<!-- compileTestJava&#45;&gt;classes -->
<g id="edge8" class="edge"><title>compileTestJava&#45;&gt;classes</title>
<path fill="none" stroke="black" d="M701.908,-272C726.591,-272 754.653,-272 776.888,-272"/>
<polygon fill="black" stroke="black" points="776.977,-275.5 786.977,-272 776.977,-268.5 776.977,-275.5"/>
</g>
<!-- jar&#45;&gt;classes -->
<g id="edge11" class="edge"><title>jar&#45;&gt;classes</title>
<path fill="none" stroke="black" d="M669.371,-55.8357C693.499,-57.0928 728.733,-62.6722 751,-83 797.418,-125.376 811.191,-202.195 815.277,-243.65"/>
<polygon fill="black" stroke="black" points="811.811,-244.204 816.157,-253.867 818.786,-243.603 811.811,-244.204"/>
</g>
<!-- uploadArchives -->
<g id="node10" class="node"><title>uploadArchives</title>
<polygon fill="lightgreen" stroke="black" points="474.5,-36 365.5,-36 365.5,-0 474.5,-0 474.5,-36"/>
<text text-anchor="middle" x="420" y="-14.3" font-family="Helvetica,sans-Serif" font-size="14.00">uploadArchives</text>
</g>
<!-- uploadArchives&#45;&gt;jar -->
<g id="edge10" class="edge"><title>uploadArchives&#45;&gt;jar</title>
<path fill="none" stroke="black" d="M474.537,-27.2473C515.053,-34.2456 569.592,-43.6658 605.019,-49.7852"/>
<polygon fill="black" stroke="black" points="604.471,-53.2421 614.92,-51.4953 605.662,-46.3443 604.471,-53.2421"/>
</g>
<!-- installDist -->
<g id="node13" class="node"><title>installDist</title>
<polygon fill="lightgreen" stroke="black" points="457,-128 383,-128 383,-92 457,-92 457,-128"/>
<text text-anchor="middle" x="420" y="-106.3" font-family="Helvetica,sans-Serif" font-size="14.00">installDist</text>
</g>
<!-- installDist&#45;&gt;jar -->
<g id="edge15" class="edge"><title>installDist&#45;&gt;jar</title>
<path fill="none" stroke="black" d="M457.329,-101.083C498.282,-91.0309 564.449,-74.7899 605.188,-64.7902"/>
<polygon fill="black" stroke="black" points="606.09,-68.1729 614.967,-62.3899 604.421,-61.3747 606.09,-68.1729"/>
</g>
<!-- startScripts -->
<g id="node14" class="node"><title>startScripts</title>
<polygon fill="lightgreen" stroke="black" points="684,-128 600,-128 600,-92 684,-92 684,-128"/>
<text text-anchor="middle" x="642" y="-106.3" font-family="Helvetica,sans-Serif" font-size="14.00">startScripts</text>
</g>
<!-- installDist&#45;&gt;startScripts -->
<g id="edge14" class="edge"><title>installDist&#45;&gt;startScripts</title>
<path fill="none" stroke="black" d="M457.329,-110C493.367,-110 548.932,-110 589.511,-110"/>
<polygon fill="black" stroke="black" points="589.745,-113.5 599.745,-110 589.745,-106.5 589.745,-113.5"/>
</g>
<!-- integrationTestClasses -->
<g id="node15" class="node"><title>integrationTestClasses</title>
<polygon fill="orange" stroke="black" points="497,-182 343,-182 343,-146 497,-146 497,-182"/>
<text text-anchor="middle" x="420" y="-160.3" font-family="Helvetica,sans-Serif" font-size="14.00">integrationTestClasses</text>
</g>
<!-- compileIntegrationTestJava -->
<g id="node16" class="node"><title>compileIntegrationTestJava</title>
<polygon fill="orange" stroke="black" points="733,-182 551,-182 551,-146 733,-146 733,-182"/>
<text text-anchor="middle" x="642" y="-160.3" font-family="Helvetica,sans-Serif" font-size="14.00">compileIntegrationTestJava</text>
</g>
<!-- integrationTestClasses&#45;&gt;compileIntegrationTestJava -->
<g id="edge16" class="edge"><title>integrationTestClasses&#45;&gt;compileIntegrationTestJava</title>
<path fill="none" stroke="black" d="M497.02,-164C511.147,-164 526.104,-164 540.825,-164"/>
<polygon fill="black" stroke="black" points="540.965,-167.5 550.965,-164 540.965,-160.5 540.965,-167.5"/>
</g>
<!-- processIntegrationTestResources -->
<g id="node17" class="node"><title>processIntegrationTestResources</title>
<polygon fill="orange" stroke="black" points="751,-236 533,-236 533,-200 751,-200 751,-236"/>
<text text-anchor="middle" x="642" y="-214.3" font-family="Helvetica,sans-Serif" font-size="14.00">processIntegrationTestResources</text>
</g>
<!-- integrationTestClasses&#45;&gt;processIntegrationTestResources -->
<g id="edge17" class="edge"><title>integrationTestClasses&#45;&gt;processIntegrationTestResources</title>
<path fill="none" stroke="black" d="M494.563,-182.056C514.836,-187.032 536.97,-192.465 557.749,-197.566"/>
<polygon fill="black" stroke="black" points="556.961,-200.976 567.507,-199.961 558.629,-194.178 556.961,-200.976"/>
</g>
<!-- integrationTest&#45;&gt;installDist -->
<g id="edge19" class="edge"><title>integrationTest&#45;&gt;installDist</title>
<path fill="none" stroke="black" d="M307.342,-138.595C328.529,-133.17 352.769,-126.962 373.238,-121.72"/>
<polygon fill="black" stroke="black" points="374.134,-125.103 382.953,-119.231 372.398,-118.322 374.134,-125.103"/>
</g>
<!-- integrationTest&#45;&gt;integrationTestClasses -->
<g id="edge18" class="edge"><title>integrationTest&#45;&gt;integrationTestClasses</title>
<path fill="none" stroke="black" d="M307.342,-155.83C315.494,-156.426 324.099,-157.056 332.767,-157.69"/>
<polygon fill="black" stroke="black" points="332.719,-161.196 342.948,-158.435 333.23,-154.215 332.719,-161.196"/>
</g>
</g>
</svg>
